<?xml version="1.0" encoding="UTF-8" standalone="no"?>
<!DOCTYPE svg PUBLIC "-//W3C//DTD SVG 1.1//EN" "http://www.w3.org/Graphics/SVG/1.1/DTD/svg11.dtd">
<!-- Created with Vectornator (http://vectornator.io/) -->
<svg height="512.0px" stroke-miterlimit="10" style="fill-rule:nonzero;clip-rule:evenodd;stroke-linecap:round;stroke-linejoin:round;" version="1.1" viewBox="0 0 512 512" width="512.0px" xml:space="preserve" xmlns="http://www.w3.org/2000/svg" xmlns:xlink="http://www.w3.org/1999/xlink">
<defs>
<linearGradient gradientTransform="matrix(205.276 -0.641486 0.641486 205.276 173.769 221.94)" gradientUnits="userSpaceOnUse" id="LinearGradient" x1="0" x2="1" y1="0" y2="0">
<stop offset="0" stop-color="#c94c2d"/>
<stop offset="1" stop-color="#f6dd27"/>
</linearGradient>
<linearGradient gradientTransform="matrix(69.2805 -1.28297 1.28297 69.2805 161.275 226.821)" gradientUnits="userSpaceOnUse" id="LinearGradient_2" x1="0" x2="1" y1="0" y2="0">
<stop offset="0" stop-color="#c94c2d"/>
<stop offset="1" stop-color="#f6dd27"/>
</linearGradient>
<linearGradient gradientTransform="matrix(290.616 236.556 -236.556 290.616 90.0661 85.5415)" gradientUnits="userSpaceOnUse" id="LinearGradient_3" x1="0" x2="1" y1="0" y2="0">
<stop offset="0" stop-color="#c7c8ca"/>
<stop offset="1" stop-color="#979797"/>
</linearGradient>
<linearGradient gradientTransform="matrix(417.156 0 0 417.156 47.422 256)" gradientUnits="userSpaceOnUse" id="LinearGradient_4" x1="0" x2="1" y1="0" y2="0">
<stop offset="0" stop-color="#c7c8ca"/>
<stop offset="1" stop-color="#7f7f7f"/>
</linearGradient>
</defs>
<g id="Слой-1">
<g opacity="1">
<path d="M198.817 72.3663C182.043 73.4038 173.091 73.7442 169.536 73.8602C179.049 98.8786 192.316 115.512 192.316 115.512L192.316 115.512C192.316 115.512 235.399 168.696 289.763 236.545L289.763 236.545C344.136 304.379 248.288 367.284 248.288 367.284L248.288 367.284C248.288 367.284 311.792 352.654 361.35 287.484L361.35 287.484C410.914 222.339 354.145 146.812 354.145 146.812L354.145 146.812L293.92 72.0036C283.888 71.8832 262.573 71.6632 242.08 71.6632L242.08 71.6632C224.518 71.6632 207.559 71.8252 198.817 72.3663ZM361.413 182.359C404.759 261.264 310.292 323.493 310.292 323.493L310.292 323.493C389.194 250.152 361.413 182.359 361.413 182.359L361.413 182.359Z" fill="url(#LinearGradient)" fill-rule="evenodd" opacity="1" stroke="none"/>
<path d="M199.995 279.616C244.898 335.379 227.997 359.364 227.997 359.364C311.091 296.774 252.114 247.737 196.35 178.488L196.35 178.488C140.603 109.25 150.377 90.0312 150.377 90.0312L150.377 90.0312C91.2792 169.706 199.995 279.616 199.995 279.616C199.995 279.616 199.995 279.616 199.995 279.616Z" fill="url(#LinearGradient_2)" fill-rule="evenodd" opacity="1" stroke="none"/>
<path d="M86.4075 78.2571C74.4401 137.465 82.5472 204.298 109.312 266.668L109.312 266.668C139.816 337.748 191.856 398.902 256.004 439.05L256.004 439.05C320.137 398.908 372.191 337.764 402.7 266.668L402.7 266.668C429.453 204.298 437.566 137.461 425.588 78.2571L425.588 78.2571C370.602 71.0939 313.304 67.5131 255.998 67.5131L255.998 67.5131C198.698 67.5131 141.394 71.0939 86.4075 78.2571ZM113.995 265.226C87.9802 204.586 79.7675 139.726 90.7331 81.9747L90.7331 81.9747C144.363 75.1415 199.947 71.687 256.014 71.687L256.014 71.687C312.065 71.687 367.639 75.1415 421.267 81.9747L421.267 81.9747C432.233 139.726 424.026 204.586 398.016 265.226L398.016 265.226C368.299 334.45 318.002 394.11 256.004 433.784L256.004 433.784C194.001 394.11 143.691 334.433 113.995 265.226L113.995 265.226Z" fill="url(#LinearGradient_3)" fill-rule="evenodd" opacity="1" stroke="none"/>
<path d="M58.2155 53.3903C39.5427 120.197 44.4882 198.68 77.8277 276.384L77.8277 276.384C114.918 362.835 179.968 431.677 254.888 472.972L254.888 472.972L257.116 472.972C332.04 431.677 397.093 362.835 434.162 276.384L434.162 276.384C467.503 198.68 472.464 120.197 453.785 53.3799L453.785 53.3799C391.405 44.0718 324.956 39.0282 256.014 39.0282L256.014 39.0282C187.048 39.0282 120.602 44.0718 58.2155 53.3903ZM254.399 443.769C188.668 403.107 135.322 340.774 104.209 268.246L104.209 268.246C76.8794 204.559 68.7827 136.223 81.4101 75.8297L81.4101 75.8297L81.7401 74.2036L83.6546 73.9524C139.511 66.59 197.503 62.856 256.014 62.856L256.014 62.856C314.509 62.856 372.495 66.59 428.352 73.9524L428.352 73.9524L430.266 74.2036L430.602 75.8297C443.224 136.223 435.117 204.559 407.791 268.246L407.791 268.246C376.669 340.779 323.33 403.107 257.593 443.769L257.593 443.769L256.004 444.759C256.004 444.759 254.399 443.769 254.399 443.769Z" fill="url(#LinearGradient_4)" fill-rule="evenodd" opacity="1" stroke="none"/>
</g>
</g>
</svg>
